<?xml version="1.0" standalone="no"?>
<!DOCTYPE svg PUBLIC "-//W3C//DTD SVG 20010904//EN"
 "http://www.w3.org/TR/2001/REC-SVG-20010904/DTD/svg10.dtd">
<svg version="1.0" xmlns="http://www.w3.org/2000/svg"
 width="1280.000000pt" height="640.000000pt" viewBox="0 0 1280.000000 640.000000"
 preserveAspectRatio="xMidYMid meet">
<metadata>
Created by potrace 1.15, written by Peter Selinger 2001-2017
</metadata>
<g transform="translate(0.000000,640.000000) scale(0.100000,-0.100000)"
fill="#000000" stroke="none">
<path d="M3740 4481 c-99 -26 -167 -67 -251 -151 -132 -131 -189 -263 -197
-450 -5 -136 10 -208 66 -314 44 -85 113 -161 209 -232 40 -30 73 -58 73 -63
0 -30 -257 -25 -383 8 -158 41 -287 135 -315 229 -7 23 -24 50 -39 61 -44 36
-70 28 -132 -40 -31 -34 -82 -79 -113 -100 -31 -22 -69 -55 -84 -74 -14 -19
-31 -35 -36 -35 -5 0 -18 19 -28 43 -29 66 -54 92 -112 117 -62 27 -169 32
-233 11 -61 -20 -126 -68 -165 -122 -22 -30 -49 -54 -72 -63 -68 -28 -245 -35
-1090 -42 l-838 -6 0 -58 0 -57 852 -7 c469 -4 898 -11 952 -17 110 -11 164
-33 186 -74 8 -15 36 -46 62 -70 58 -52 137 -79 229 -78 111 2 182 43 223 128
14 30 30 55 35 55 5 0 21 -16 35 -35 15 -19 53 -53 86 -75 32 -22 71 -54 87
-71 15 -17 40 -44 55 -60 48 -52 116 -26 140 54 8 28 31 61 68 98 96 97 235
147 436 156 123 6 194 0 194 -17 0 -5 -33 -33 -72 -63 -99 -73 -161 -144 -208
-241 -53 -107 -70 -180 -70 -296 0 -180 59 -329 180 -450 119 -121 236 -170
400 -170 156 0 294 50 393 140 231 211 180 639 -92 773 -58 28 -75 32 -147 32
-73 0 -88 -4 -150 -35 -76 -39 -124 -96 -145 -173 -13 -50 -7 -133 14 -174 38
-72 119 -122 200 -123 90 0 169 54 207 142 19 45 21 57 11 90 -8 24 -21 43
-39 52 -41 21 -108 37 -126 30 -20 -8 -21 -40 -1 -48 20 -7 20 -80 -1 -100
-24 -25 -78 -20 -113 10 -25 21 -31 33 -31 66 0 51 26 95 63 108 17 5 60 10
97 10 170 0 269 -133 239 -322 -20 -128 -90 -227 -197 -280 -64 -32 -72 -33
-182 -33 -104 0 -120 3 -173 27 -156 73 -257 245 -257 438 1 193 71 332 228
451 88 66 150 94 257 114 50 9 110 21 135 25 66 13 376 24 442 16 57 -7 58 -8
85 -59 38 -71 90 -99 192 -105 42 -2 95 1 119 7 50 14 105 59 122 100 6 16 19
32 27 35 8 3 80 11 159 18 116 9 147 9 157 -1 10 -10 4 -19 -28 -44 -127 -100
-205 -222 -246 -386 -29 -114 -24 -304 10 -401 61 -174 191 -295 366 -340 99
-25 181 -25 279 0 101 25 167 62 237 130 129 126 171 315 110 492 -52 150
-156 231 -296 231 -175 -1 -308 -114 -308 -262 0 -94 61 -181 150 -212 51 -18
178 -16 225 4 29 12 39 24 49 55 14 50 2 109 -27 128 -22 15 -16 18 -112 -52
-13 -10 -49 -20 -79 -22 l-56 -5 6 33 c4 18 7 56 7 85 0 77 19 96 101 102 52
4 75 1 111 -15 143 -63 171 -291 54 -428 -62 -73 -211 -133 -327 -134 -110 0
-227 60 -295 152 -146 199 -113 492 77 679 174 171 399 219 1029 219 493 0
706 -27 878 -111 228 -112 358 -363 308 -599 -51 -240 -231 -371 -456 -331
-93 17 -199 70 -245 123 -118 139 -91 367 53 430 36 16 59 19 111 15 82 -6
101 -25 101 -102 0 -29 3 -67 7 -85 l6 -33 -56 5 c-30 2 -66 12 -79 22 -96 70
-90 67 -112 52 -29 -19 -41 -78 -27 -128 10 -31 20 -43 49 -55 47 -20 174 -22
225 -4 89 31 149 116 150 211 1 148 -132 262 -308 263 -140 0 -244 -81 -296
-231 -61 -177 -19 -366 110 -492 70 -68 136 -105 237 -130 280 -72 550 71 645
341 34 96 39 287 10 400 -41 164 -119 286 -246 386 -32 25 -38 34 -28 44 10
10 41 10 157 1 79 -7 151 -15 159 -18 8 -3 21 -19 27 -35 17 -41 72 -86 122
-100 24 -6 77 -9 119 -7 102 6 154 34 192 105 27 51 28 52 85 59 66 8 376 -3
442 -16 25 -4 83 -16 130 -24 106 -20 146 -36 224 -88 90 -61 177 -154 209
-222 126 -268 35 -584 -200 -694 -53 -24 -69 -27 -173 -27 -110 0 -118 1 -182
33 -107 53 -177 152 -197 280 -30 189 69 322 239 322 84 0 121 -13 143 -49 27
-46 22 -97 -12 -132 -34 -33 -89 -40 -115 -13 -21 20 -21 93 -1 100 20 8 19
40 -1 48 -18 7 -85 -9 -126 -30 -18 -9 -31 -28 -39 -52 -10 -33 -8 -45 11 -90
38 -88 117 -142 207 -142 81 1 162 51 200 123 21 41 27 124 14 174 -21 77 -69
134 -145 173 -62 31 -77 35 -150 35 -72 0 -89 -4 -148 -33 -145 -71 -238 -234
-238 -417 0 -292 221 -494 540 -495 164 0 281 49 400 170 195 196 237 507 104
761 -46 88 -106 155 -201 225 -40 30 -73 58 -73 64 0 17 70 23 194 17 201 -9
340 -59 436 -156 37 -37 60 -70 68 -98 24 -80 92 -106 140 -54 15 16 40 43 55
60 16 17 55 49 87 71 33 22 71 56 86 75 14 19 30 35 35 35 5 0 21 -25 35 -55
41 -85 112 -126 223 -128 92 -1 171 26 229 78 26 24 54 55 62 70 22 41 76 63
186 74 54 6 483 13 952 17 l852 7 0 57 0 58 -837 6 c-846 7 -1023 14 -1091 42
-23 9 -50 33 -72 63 -39 54 -104 102 -165 122 -66 21 -172 16 -233 -11 -58
-25 -83 -51 -112 -117 -10 -24 -23 -43 -28 -43 -5 0 -22 16 -36 35 -15 19 -53
52 -84 74 -31 21 -82 66 -113 100 -82 89 -126 81 -178 -32 -47 -104 -151 -177
-310 -218 -125 -33 -381 -38 -381 -8 0 5 33 33 73 63 96 71 165 147 209 232
56 107 71 178 65 314 -8 188 -65 319 -196 451 -182 182 -425 218 -662 99 -115
-59 -208 -181 -240 -315 -14 -64 -14 -196 0 -259 29 -123 112 -235 209 -283
50 -25 68 -28 147 -28 70 1 100 5 137 22 112 51 168 128 175 242 4 58 2 72
-24 121 -40 77 -111 120 -198 120 -50 0 -69 -5 -106 -28 -56 -37 -73 -56 -99
-115 -25 -56 -20 -94 15 -127 26 -25 108 -50 137 -42 22 5 24 40 3 48 -20 8
-20 78 1 98 24 25 78 20 113 -10 25 -21 31 -33 31 -66 0 -89 -55 -124 -181
-116 -146 11 -224 107 -222 273 3 141 76 263 194 323 294 150 619 -73 619
-425 0 -181 -63 -317 -198 -429 -91 -75 -185 -122 -268 -134 -38 -5 -84 -14
-103 -20 -59 -17 -287 -33 -411 -28 -129 4 -144 10 -166 65 -27 65 -107 103
-213 103 -118 0 -144 -14 -240 -126 -13 -16 -34 -23 -82 -27 -253 -25 -282
-19 -209 40 188 153 270 312 270 523 0 422 -349 709 -715 588 -127 -42 -234
-133 -296 -253 -48 -91 -63 -159 -57 -253 8 -133 79 -237 203 -298 53 -25 71
-29 150 -29 108 0 149 18 217 93 98 110 91 251 -16 350 -34 31 -55 42 -92 48
-136 20 -264 -64 -247 -161 12 -63 52 -73 105 -26 48 41 71 51 121 51 l45 0
-5 -82 c-3 -46 -10 -91 -15 -100 -11 -23 -82 -41 -141 -35 -144 13 -227 189
-167 352 51 137 195 220 380 220 77 0 104 -5 144 -23 103 -47 174 -128 217
-248 28 -76 31 -233 6 -312 -73 -236 -254 -375 -553 -426 -167 -29 -296 -36
-624 -36 -543 0 -774 37 -944 151 -115 77 -192 180 -233 311 -25 79 -22 236 6
312 43 120 114 201 217 248 40 18 67 23 144 23 186 0 327 -82 379 -220 61
-162 -22 -339 -166 -352 -59 -6 -130 12 -141 35 -5 9 -12 54 -15 100 l-5 82
45 0 c50 0 73 -10 121 -51 53 -47 93 -37 105 26 17 97 -111 181 -247 161 -37
-6 -58 -17 -92 -48 -63 -58 -87 -114 -82 -191 5 -74 26 -122 76 -172 64 -64
105 -80 207 -80 79 0 97 4 150 29 124 61 195 165 203 298 6 94 -9 162 -57 253
-162 314 -580 376 -832 125 -115 -116 -179 -277 -179 -455 0 -217 80 -373 270
-528 73 -59 44 -65 -209 -40 -48 4 -69 11 -82 27 -96 112 -122 126 -240 126
-106 0 -186 -38 -213 -103 -22 -55 -37 -61 -166 -65 -124 -5 -352 11 -411 28
-19 6 -65 15 -103 20 -163 24 -359 179 -423 335 -127 308 27 641 322 696 118
22 279 -30 350 -114 144 -168 129 -423 -30 -504 -39 -21 -149 -28 -200 -14
-49 13 -75 51 -75 109 0 33 6 45 31 66 35 30 89 35 113 10 21 -20 21 -90 1
-98 -21 -8 -19 -43 3 -48 31 -8 113 18 140 46 60 60 13 178 -98 245 -57 34
-142 29 -210 -11 -108 -66 -141 -193 -80 -315 54 -107 144 -157 285 -158 79 0
97 3 147 28 97 48 180 160 209 283 14 63 14 195 0 259 -19 81 -69 172 -125
229 -123 127 -348 185 -526 137z m-876 -1131 c14 -5 51 -33 83 -62 32 -30 69
-61 83 -71 l24 -17 -24 -17 c-13 -9 -52 -43 -88 -75 -67 -61 -105 -75 -166
-64 -144 27 -163 250 -26 305 33 13 82 13 114 1z m7214 -17 c109 -81 75 -265
-54 -289 -61 -11 -99 3 -166 64 -36 32 -75 66 -88 75 l-24 17 24 17 c14 9 48
39 75 65 28 26 64 54 80 63 39 21 117 15 153 -12z m-7673 -30 c49 -26 81 -59
90 -93 9 -36 -23 -73 -88 -104 -71 -35 -131 -42 -198 -23 -138 41 -153 158
-28 225 37 20 54 23 114 19 44 -2 85 -12 110 -24z m8215 4 c124 -65 109 -184
-29 -224 -67 -19 -127 -12 -198 23 -65 31 -97 68 -88 104 24 97 207 154 315
97z m-5743 -62 c33 -22 29 -74 -7 -92 -87 -44 -215 23 -152 80 43 39 109 44
159 12z m3193 -3 c57 -43 17 -102 -69 -102 -68 0 -96 18 -96 60 0 30 5 38 35
53 41 21 92 17 130 -11z"/>
</g>
</svg>
