<?xml version="1.0" standalone="no"?>
<!DOCTYPE svg PUBLIC "-//W3C//DTD SVG 20010904//EN"
 "http://www.w3.org/TR/2001/REC-SVG-20010904/DTD/svg10.dtd">
<svg version="1.0" xmlns="http://www.w3.org/2000/svg"
 width="1280.000000pt" height="768.000000pt" viewBox="0 0 1280.000000 768.000000"
 preserveAspectRatio="xMidYMid meet">
<metadata>
Created by potrace 1.15, written by Peter Selinger 2001-2017
</metadata>
<g transform="translate(0.000000,768.000000) scale(0.100000,-0.100000)"
fill="#000000" stroke="none">
<path d="M1940 7304 c-244 -65 -376 -335 -270 -550 16 -33 37 -71 46 -86 l18
-27 -71 -74 c-138 -145 -203 -295 -211 -486 -7 -169 22 -273 114 -413 76 -114
119 -162 192 -212 195 -133 460 -132 637 2 53 40 61 58 34 75 -13 8 -28 3 -65
-20 -66 -42 -135 -64 -219 -69 l-70 -4 60 15 c72 19 187 75 235 115 l35 29
-21 21 -21 21 -49 -34 c-79 -53 -152 -72 -274 -72 -122 0 -201 23 -291 85
-114 78 -154 166 -153 345 0 176 44 303 154 438 85 104 85 105 173 58 229
-121 501 -81 677 98 45 45 77 90 103 144 l38 77 66 0 c55 0 262 -26 271 -35 1
-1 -18 -40 -42 -86 -83 -157 -126 -334 -126 -525 0 -246 67 -447 219 -657 144
-200 336 -329 578 -389 125 -31 323 -31 446 0 172 43 308 122 423 245 83 89
135 186 165 307 30 116 23 270 -15 385 -41 122 -136 275 -231 371 -138 140
-278 198 -470 198 -113 -1 -190 -16 -281 -54 l-46 -20 -75 71 c-41 39 -109 92
-151 119 -130 83 -123 72 -66 113 69 52 204 120 307 156 156 55 262 72 477 78
304 8 489 -26 705 -131 141 -69 266 -158 377 -269 102 -101 163 -199 203 -323
20 -61 33 -84 45 -84 11 0 20 -13 26 -37 11 -43 37 -64 56 -45 31 31 -63 260
-181 438 -216 327 -535 552 -893 631 -67 14 -127 18 -313 18 -201 -1 -243 -3
-335 -23 -270 -59 -483 -162 -642 -310 l-65 -62 -95 24 c-52 14 -132 30 -179
36 -46 6 -98 13 -115 16 -28 4 -32 8 -37 48 -9 60 -36 137 -57 161 -10 11 -28
40 -40 65 -29 58 -25 55 -54 37 l-24 -16 25 -63 c17 -41 27 -89 31 -144 l5
-81 -94 -7 c-133 -11 -283 -41 -401 -82 -99 -35 -244 -103 -303 -143 -16 -12
-35 -21 -41 -21 -21 0 -38 63 -38 136 0 92 41 182 115 248 48 43 138 86 180
86 31 0 59 19 59 40 0 28 -33 33 -102 15 -139 -35 -247 -132 -294 -263 l-13
-37 -1 32 c0 48 35 134 75 180 58 68 138 111 238 128 33 5 37 9 37 35 0 26 -4
30 -27 29 -16 0 -53 -7 -83 -15z m1745 -238 c-135 -49 -248 -114 -352 -202
-52 -45 -67 -51 -77 -35 -9 14 137 120 231 169 77 40 241 101 273 101 8 0 -25
-15 -75 -33z m-1075 -194 c0 -17 -25 -32 -55 -32 -129 0 -398 -79 -564 -165
-108 -57 -125 -62 -136 -44 -9 14 13 30 127 89 151 79 326 129 514 149 112 12
114 12 114 3z m403 -38 c60 -15 107 -28 104 -30 -2 -2 -48 5 -103 15 -54 11
-134 22 -176 26 -43 4 -81 11 -84 17 -11 17 135 1 259 -28z m-453 -64 c0 -19
-94 -112 -146 -146 -82 -53 -165 -76 -269 -77 -90 0 -169 15 -180 34 -9 14
206 114 310 143 83 24 226 53 268 55 9 1 17 -4 17 -9z m70 -69 c-91 -171 -304
-271 -509 -240 -114 17 -126 27 -26 22 212 -11 410 84 516 248 46 72 61 49 19
-30z m518 -39 c-67 -101 -124 -235 -153 -362 l-14 -65 5 55 c12 120 65 276
128 375 27 41 40 55 48 47 8 -8 4 -22 -14 -50z m240 -32 c92 -49 222 -137 222
-151 0 -4 -29 -36 -65 -70 -122 -117 -166 -255 -121 -384 23 -65 101 -180 149
-219 35 -28 46 -31 107 -31 60 0 73 4 112 31 29 22 54 52 77 98 30 57 34 75
34 138 0 79 -20 162 -60 246 -14 29 -23 59 -20 66 10 24 144 50 257 50 178 0
323 -58 441 -174 49 -49 71 -80 87 -123 102 -272 -1 -577 -252 -745 -161 -107
-311 -147 -525 -139 -145 5 -206 19 -338 74 -163 69 -313 202 -376 335 -62
129 -81 230 -81 413 1 172 12 247 59 371 51 136 138 264 178 264 12 0 64 -23
115 -50z m-1598 -73 c0 -7 -23 -35 -51 -62 -58 -57 -132 -156 -154 -206 -8
-19 -14 -27 -15 -18 0 37 84 182 142 245 56 59 78 71 78 41z m2040 -98 c-30
-11 -62 -18 -70 -16 -18 4 75 36 105 36 11 0 -5 -9 -35 -20z m-150 -60 c0 -5
-27 -35 -61 -66 -67 -62 -112 -123 -135 -181 l-14 -37 4 41 c7 76 66 165 149
225 43 31 57 35 57 18z m83 -140 c52 -151 -6 -314 -118 -335 -41 -7 -91 10
-105 37 -17 30 -11 131 9 175 32 70 155 191 185 181 6 -2 19 -28 29 -58z m52
-325 c-38 -78 -94 -112 -161 -99 -45 8 -43 21 4 29 54 8 117 57 150 116 37 68
44 29 7 -46z m886 -206 c-37 -242 -173 -417 -403 -522 -182 -83 -369 -100
-586 -55 -81 17 -55 22 44 8 292 -39 606 76 787 289 60 71 122 194 145 289 9
39 19 70 20 68 2 -2 -1 -36 -7 -77z"/>
<path d="M10180 7291 c0 -29 17 -40 65 -41 11 -1 34 -7 50 -15 l30 -15 -30 5
c-16 3 -36 1 -43 -4 -21 -13 -10 -45 18 -52 113 -32 141 -43 185 -77 78 -58
103 -157 70 -269 -16 -53 -50 -110 -75 -125 -11 -7 -39 5 -100 41 -98 59 -248
120 -370 151 -71 18 -263 49 -308 50 -16 0 -9 48 20 133 22 64 19 87 -11 87
-22 0 -38 -23 -57 -85 -12 -38 -13 -38 -13 -10 0 17 9 55 20 85 11 30 22 62
25 71 7 20 -40 43 -54 26 -26 -33 -55 -139 -59 -218 l-6 -86 -120 -13 c-67 -6
-174 -25 -239 -41 l-118 -30 -42 42 c-165 161 -418 285 -683 334 -120 23 -408
31 -530 16 -443 -56 -873 -370 -1060 -774 -36 -79 -77 -212 -67 -221 3 -3 17
-6 31 -6 24 0 28 6 44 69 53 203 236 438 462 591 68 46 175 105 175 96 0 -2
-21 -16 -47 -31 -137 -79 -307 -233 -411 -373 -68 -92 -134 -216 -168 -314
-28 -82 -30 -116 -9 -124 23 -9 42 12 55 63 33 133 138 300 271 433 190 190
414 312 679 372 95 21 129 23 345 23 266 -1 353 -13 532 -76 132 -47 303 -137
303 -160 0 -5 -28 -23 -62 -40 -93 -47 -194 -118 -275 -193 -72 -67 -72 -67
-101 -52 -49 25 -167 54 -249 61 -229 19 -468 -100 -598 -295 -165 -248 -166
-546 -4 -806 135 -215 312 -348 546 -406 123 -31 321 -31 446 0 297 74 525
255 647 515 68 144 85 233 85 442 0 247 -28 358 -140 560 -30 54 -55 103 -55
107 0 18 228 64 350 70 l55 2 66 -100 c77 -116 147 -182 242 -231 171 -86 376
-81 544 12 l63 36 35 -26 c87 -67 154 -226 162 -385 9 -172 -37 -300 -149
-413 -106 -108 -238 -156 -396 -144 -92 7 -158 28 -231 74 -50 32 -54 33 -67
16 -19 -25 -18 -28 19 -59 17 -15 32 -36 32 -48 0 -27 83 -89 161 -120 298
-120 638 41 746 352 20 58 23 86 23 212 -1 129 -4 154 -27 223 -30 89 -114
236 -188 328 -48 59 -49 64 -35 86 8 13 21 33 29 46 50 78 58 230 17 323 -84
190 -212 312 -359 343 -82 17 -92 15 -92 -18z m-623 -428 c3 -7 -13 -14 -44
-18 -145 -18 -216 -30 -293 -51 -81 -21 -110 -20 -110 6 0 16 183 57 312 69
103 11 130 9 135 -6z m279 -8 c91 -16 207 -45 201 -51 -1 -2 -45 5 -97 16 -52
10 -132 21 -178 25 -45 4 -85 11 -88 16 -8 14 63 11 162 -6z m750 -106 c-16
-60 -50 -129 -65 -129 -4 0 -12 5 -18 11 -8 8 -2 23 21 54 18 23 42 63 52 88
10 25 20 44 22 42 2 -2 -4 -31 -12 -66z m-690 16 c128 -22 256 -61 357 -107
102 -48 102 -56 -2 -89 -144 -46 -317 -21 -443 64 -64 43 -126 117 -114 136
10 16 98 14 202 -4z m-873 -9 c7 -18 0 -24 -103 -77 -86 -44 -215 -135 -259
-183 -26 -28 -46 -33 -57 -15 -16 27 168 174 307 243 101 51 105 52 112 32z
m101 -109 c38 -50 84 -157 109 -255 18 -73 22 -115 21 -257 0 -153 -2 -180
-26 -267 -91 -329 -322 -547 -665 -629 -75 -18 -110 -20 -233 -17 -130 4 -155
8 -240 37 -125 42 -228 102 -304 176 -96 94 -138 205 -139 365 -1 171 52 301
173 421 123 124 269 183 445 183 50 0 111 -3 137 -7 l47 -8 -20 -52 c-50 -125
-54 -260 -10 -344 80 -151 159 -223 248 -223 164 0 270 219 191 392 -32 69
-89 159 -139 219 l-39 47 52 47 c29 26 73 61 98 79 67 46 222 125 247 126 13
0 32 -13 47 -33z m1301 -88 c19 -30 -85 -81 -202 -99 -48 -8 -87 -8 -141 0
-113 18 -128 28 -31 23 103 -7 205 13 294 56 69 34 72 35 80 20z m-2466 -131
c-179 -89 -324 -289 -358 -492 l-9 -51 -1 45 c-2 112 62 268 151 366 56 61
136 116 216 150 91 37 92 28 1 -18z m571 -86 c0 -10 -5 -23 -11 -29 -6 -6 -24
-48 -40 -94 -30 -89 -39 -73 -14 24 17 67 41 117 55 117 6 0 10 -8 10 -18z
m120 -39 c43 -28 81 -67 97 -98 36 -68 9 -189 -56 -250 -27 -25 -41 -30 -83
-30 -43 0 -53 4 -75 29 -24 28 -25 35 -21 115 6 115 62 251 102 251 6 0 23 -7
36 -17z m169 -308 c-22 -116 -111 -187 -194 -154 -32 12 -30 14 28 24 49 8
111 63 143 127 13 26 26 48 28 48 2 0 0 -20 -5 -45z m472 -194 c-42 -170 -100
-277 -210 -393 -122 -129 -259 -208 -441 -255 -115 -29 -281 -33 -404 -9 -92
18 -116 31 -36 19 30 -4 111 -7 180 -6 269 3 503 104 686 295 113 118 186 248
225 397 7 29 15 48 17 42 2 -6 -6 -46 -17 -90z m1402 -112 c-31 -53 -110 -135
-163 -169 -55 -35 -184 -80 -228 -79 -15 0 4 8 44 19 130 34 239 104 317 206
48 61 56 68 30 23z"/>
<path d="M6986 4438 c-75 -21 -136 -107 -136 -193 0 -34 34 -106 85 -182 l35
-53 -67 -50 c-124 -91 -113 -89 -239 -42 -337 123 -693 202 -1000 222 -269 17
-460 -17 -660 -115 -234 -116 -347 -281 -330 -482 8 -94 36 -169 108 -280 98
-152 217 -243 393 -302 118 -39 195 -51 335 -51 322 0 663 90 1073 284 l118
56 110 -47 c60 -26 109 -51 109 -55 0 -12 -177 -142 -243 -178 -57 -32 -58
-32 -79 -14 -11 11 -26 33 -34 49 -36 87 -122 106 -181 41 -43 -46 -46 -106
-8 -157 13 -19 29 -45 35 -59 28 -62 89 -100 162 -100 99 1 225 65 445 229 67
50 130 91 140 91 10 0 80 -23 157 -51 314 -114 520 -155 746 -146 197 8 307
41 457 138 l62 41 88 -20 c163 -38 237 -46 393 -47 146 0 158 1 204 25 66 33
91 69 91 129 0 36 -6 56 -26 82 -14 19 -34 49 -43 67 -20 38 -70 72 -106 72
-40 0 -87 -35 -100 -75 -10 -31 -9 -41 7 -74 l20 -39 -29 -6 c-29 -6 -245 8
-303 20 -70 13 -69 10 -36 67 49 86 64 155 59 271 -6 122 -22 173 -95 288
-130 209 -282 282 -583 282 -208 0 -381 -34 -577 -116 l-73 -30 -67 23 c-38
12 -87 30 -111 40 l-43 19 19 37 c53 103 39 165 -69 322 -44 62 -133 91 -213
69z m53 -91 c-2 -2 -22 -13 -44 -25 l-40 -23 28 26 c15 14 35 25 44 25 9 0 14
-1 12 -3z m101 -113 c0 -34 -25 -86 -54 -113 l-23 -22 -30 25 c-24 20 -29 31
-25 56 6 41 54 80 98 80 30 0 34 -3 34 -26z m-1863 -220 c-3 -3 -12 -4 -19 -1
-8 3 -5 6 6 6 11 1 17 -2 13 -5z m-108 -33 c-118 -44 -211 -97 -281 -159 -36
-33 -53 -44 -40 -27 28 36 91 88 152 123 49 29 207 91 230 91 8 0 -19 -13 -61
-28z m2834 -8 c-7 -2 -19 -2 -25 0 -7 3 -2 5 12 5 14 0 19 -2 13 -5z m-70 -10
c-7 -2 -19 -2 -25 0 -7 3 -2 5 12 5 14 0 19 -2 13 -5z m-2123 -13 c202 -21
480 -81 709 -152 74 -23 74 -24 50 -39 -31 -20 -189 -91 -255 -115 l-52 -18
-78 36 c-185 84 -363 122 -550 116 -115 -3 -124 -5 -190 -38 -86 -44 -114 -82
-114 -155 0 -39 6 -60 25 -86 13 -19 33 -50 44 -69 25 -46 46 -64 106 -92 46
-21 64 -23 205 -22 170 0 252 14 481 79 l124 36 73 -34 c56 -26 70 -36 60 -44
-34 -28 -298 -131 -444 -173 -457 -133 -811 -115 -1050 55 -74 53 -109 103
-124 179 -43 211 105 391 402 490 156 53 358 69 578 46z m2025 -6 c-33 -8 -95
-26 -138 -40 -43 -14 -81 -24 -84 -21 -3 3 33 17 78 31 122 37 151 44 179 44
14 0 -2 -6 -35 -14z m-800 -13 c-9 -16 -126 -101 -138 -101 -6 0 23 25 63 55
74 56 86 63 75 46z m1341 -56 c79 -21 172 -67 211 -106 20 -18 39 -52 48 -82
22 -73 19 -194 -5 -259 -21 -55 -112 -186 -136 -195 -24 -9 -510 146 -579 184
-20 12 54 34 274 82 73 16 135 32 138 35 11 11 -11 25 -68 45 l-54 20 28 10
c16 6 37 11 48 11 51 0 -2 24 -246 109 -146 52 -265 97 -265 101 0 9 175 49
265 60 92 12 266 4 341 -15z m-1162 -21 c31 -14 56 -27 56 -29 0 -2 -32 -23
-70 -46 l-70 -41 -60 22 c-33 12 -60 24 -60 25 0 10 118 95 131 95 9 0 42 -12
73 -26z m166 -89 c0 -7 -120 -75 -133 -75 -7 0 17 18 53 39 63 38 80 46 80 36z
m321 -85 c79 -28 144 -52 146 -54 4 -4 -223 -86 -239 -86 -7 0 -52 16 -98 36
-47 20 -101 42 -120 50 l-35 15 80 44 c44 24 90 45 102 45 11 0 86 -23 164
-50z m-1006 24 c-24 -18 -186 -97 -259 -125 -83 -33 -39 -5 64 40 52 23 120
55 150 71 62 33 74 37 45 14z m-1159 -40 c-21 -7 -55 -23 -75 -35 l-36 -22 21
22 c21 22 85 50 114 50 8 0 -2 -7 -24 -15z m1394 -16 l35 -14 -110 -65 c-61
-36 -134 -78 -163 -94 l-52 -28 -60 28 c-33 16 -60 31 -59 34 0 3 69 41 152
83 162 81 184 86 257 56z m-1060 -63 c52 -8 108 -18 124 -23 l29 -8 -39 -11
c-113 -33 -216 -47 -341 -48 -148 0 -174 9 -136 46 55 55 187 71 363 44z
m1189 -19 c-17 -17 -294 -174 -298 -169 -4 3 -1 7 4 9 6 2 73 42 150 88 77 46
142 82 144 80 2 -2 2 -6 0 -8z m878 -32 c-3 -3 -12 -4 -19 -1 -8 3 -5 6 6 6
11 1 17 -2 13 -5z m-622 -46 c93 -40 96 -42 73 -55 -12 -7 -72 -42 -133 -76
-60 -35 -124 -72 -141 -82 l-31 -18 -94 37 c-52 21 -98 41 -102 46 -11 10 281
189 310 189 12 1 65 -18 118 -41z m520 16 c-38 -13 -74 -23 -80 -21 -11 4 111
45 135 45 8 0 -16 -10 -55 -24z m-1698 -30 c-3 -3 -12 -4 -19 -1 -8 3 -5 6 6
6 11 1 17 -2 13 -5z m-70 -20 c-3 -3 -12 -4 -19 -1 -8 3 -5 6 6 6 11 1 17 -2
13 -5z m-40 -10 c-3 -3 -12 -4 -19 -1 -8 3 -5 6 6 6 11 1 17 -2 13 -5z m1488
-62 c-16 -14 -303 -172 -312 -172 -13 1 85 60 202 121 109 58 128 67 110 51z
m289 -94 c72 -28 212 -79 311 -114 99 -34 178 -66 177 -70 -12 -30 -215 -74
-341 -74 -140 0 -335 38 -530 102 l-94 31 24 18 c30 23 297 159 312 159 6 0
70 -23 141 -52z m-1240 2 c-30 -30 -453 -197 -544 -214 -19 -4 25 14 99 39 74
25 202 77 285 114 153 69 178 79 160 61z m2066 -64 c0 -2 -8 -10 -17 -17 -16
-13 -17 -12 -4 4 13 16 21 21 21 13z m-1610 -141 c0 -8 -202 -156 -262 -192
-54 -33 -128 -67 -128 -59 0 3 35 23 78 46 43 23 130 80 193 125 121 89 119
88 119 80z m-1055 -25 c-11 -5 -29 -8 -40 -8 -16 0 -15 2 5 8 34 11 60 11 35
0z m-68 -16 c-3 -3 -12 -4 -19 -1 -8 3 -5 6 6 6 11 1 17 -2 13 -5z m2523 1 c0
-7 -90 -51 -120 -59 -14 -4 4 8 40 27 68 35 80 40 80 32z"/>
<path d="M3945 2103 c-133 -11 -318 -37 -450 -63 -259 -51 -423 -102 -985
-308 -569 -208 -824 -269 -1171 -279 -305 -9 -495 20 -659 100 -71 34 -102 58
-189 144 -127 126 -154 130 -78 11 137 -216 307 -334 562 -388 130 -27 437
-38 621 -21 303 28 503 76 924 221 796 275 1027 339 1405 386 172 22 536 25
675 5 380 -52 658 -174 877 -384 118 -113 209 -262 259 -419 12 -40 23 -58 34
-58 11 0 21 -14 29 -40 13 -45 41 -55 41 -15 0 37 -53 175 -105 273 -253 476
-647 743 -1216 826 -98 15 -448 20 -574 9z m-1680 -573 c-27 -10 -57 -18 -65
-18 -8 0 8 8 35 18 28 10 57 18 65 18 8 0 -7 -8 -35 -18z m-135 -41 c-43 -18
-300 -78 -425 -100 -150 -26 -464 -37 -615 -20 -99 11 -285 49 -278 57 2 2 46
-6 98 -17 125 -26 441 -36 629 -20 167 15 342 44 480 80 111 29 154 37 111 20z"/>
<path d="M8160 2094 c-517 -82 -909 -325 -1128 -699 -75 -128 -145 -316 -125
-336 17 -17 29 -4 48 53 26 81 99 232 149 306 203 305 528 500 946 567 131 21
154 18 42 -6 -464 -97 -836 -358 -1025 -717 -59 -113 -114 -269 -99 -284 16
-16 28 -3 52 64 149 415 473 701 922 817 195 50 318 65 563 65 233 0 353 -10
581 -49 274 -47 456 -102 1273 -379 432 -148 660 -193 1016 -203 325 -9 507
18 680 102 107 52 190 117 262 205 51 62 66 100 41 100 -6 0 -42 -34 -80 -74
-166 -180 -353 -251 -693 -263 -93 -3 -224 -2 -290 3 l-120 9 245 6 c196 5
266 11 350 28 232 49 411 162 529 334 27 40 30 48 16 53 -11 5 -40 -19 -95
-78 -128 -137 -252 -204 -456 -245 -140 -28 -544 -25 -719 5 -260 45 -446 101
-985 297 -553 201 -781 263 -1142 311 -177 23 -632 28 -758 8z m2993 -711 c-7
-2 -21 -2 -30 0 -10 3 -4 5 12 5 17 0 24 -2 18 -5z"/>
<path d="M4010 1613 c-261 -19 -575 -95 -1090 -263 -858 -280 -1008 -315
-1365 -315 -168 0 -227 4 -295 19 -101 22 -233 67 -312 107 -49 25 -58 26 -68
13 -16 -18 -22 -13 80 -67 333 -179 764 -201 1286 -67 64 17 119 29 121 27 5
-6 -179 -54 -312 -81 -192 -39 -311 -49 -500 -43 -219 8 -338 34 -518 114 -54
24 -82 32 -89 25 -16 -16 -2 -30 62 -62 244 -123 523 -175 809 -151 255 21
463 68 851 192 670 214 1019 311 1293 361 167 31 500 33 622 4 188 -44 334
-108 442 -196 83 -67 107 -127 101 -250 -5 -102 -35 -168 -109 -234 -142 -128
-448 -194 -767 -168 -243 21 -423 81 -561 189 -63 50 -163 165 -204 235 -24
41 -25 42 -47 28 -12 -7 -10 -18 15 -72 63 -133 175 -282 269 -355 190 -148
432 -210 784 -200 148 4 193 9 277 31 209 55 352 151 416 282 40 81 50 196 25
294 -44 171 -203 365 -371 451 -235 122 -534 175 -845 152z m464 -89 c87 -15
252 -62 244 -69 -2 -2 -31 4 -63 14 -156 49 -387 69 -579 52 -143 -13 -183 -8
-54 7 135 15 353 14 452 -4z m-551 -21 c-7 -2 -19 -2 -25 0 -7 3 -2 5 12 5 14
0 19 -2 13 -5z m-1123 -304 c-63 -21 -119 -39 -125 -38 -14 1 207 77 225 77 8
0 -37 -17 -100 -39z m-220 -70 c-46 -16 -89 -29 -95 -28 -14 1 147 57 165 57
8 0 -23 -13 -70 -29z m-140 -44 c-19 -7 -42 -13 -50 -13 -8 0 1 6 20 13 19 7
42 13 50 13 8 0 -1 -6 -20 -13z m2736 -279 c-18 -59 -66 -129 -120 -169 -96
-73 -299 -138 -473 -151 l-78 -5 90 14 c329 53 546 204 582 406 l8 44 3 -43
c2 -23 -4 -67 -12 -96z"/>
<path d="M8340 1610 c-432 -54 -734 -233 -811 -481 -25 -81 -26 -211 0 -283
27 -77 133 -229 192 -276 99 -78 252 -136 427 -161 110 -15 431 -6 527 16 300
67 493 202 605 423 30 59 34 92 11 92 -6 0 -32 -33 -59 -72 -62 -92 -181 -205
-264 -251 -129 -73 -302 -120 -478 -131 l-85 -5 95 13 c153 23 258 53 375 111
167 81 290 203 362 362 21 45 23 57 12 64 -21 13 -23 12 -43 -23 -10 -18 -43
-65 -73 -105 -144 -190 -363 -295 -680 -324 -287 -26 -575 23 -725 124 -76 51
-105 91 -113 160 -30 240 179 452 537 546 135 35 229 44 406 38 321 -10 594
-75 1442 -344 514 -163 711 -210 975 -234 282 -25 564 25 798 142 72 37 99 61
83 76 -3 3 -41 -10 -83 -29 -188 -86 -301 -109 -563 -113 -195 -3 -204 -3 -90
6 234 16 420 64 595 151 100 50 108 57 95 73 -9 11 -28 5 -93 -25 -175 -82
-360 -120 -579 -120 -314 0 -545 52 -1228 275 -577 188 -817 253 -1075 291
-127 18 -398 26 -495 14z m125 -85 c-243 -25 -408 -69 -563 -150 -188 -97
-310 -244 -329 -396 -7 -54 -7 -54 -13 -17 -10 56 7 152 36 210 66 130 224
243 433 309 137 43 239 57 401 57 l155 0 -120 -13z"/>
</g>
</svg>
