<svg version="1.0" xmlns="http://www.w3.org/2000/svg" width="auto" height="150.000000pt" viewBox="-1.042 296.285 586.785 75.811" preserveAspectRatio="xMidYMid meet">
  <g transform="translate(0.000000,640.000000) scale(0.100000,-0.100000)" fill="#381e1e" stroke="none">
    <path d="M4933 3400 c-109 -26 -217 -115 -267 -220 -29 -60 -31 -73 -31 -170
1 -119 22 -184 77 -236 l30 -29 -21 35 c-33 55 -61 156 -61 224 0 266 238 436
502 356 96 -28 195 -82 348 -189 124 -87 308 -197 315 -189 2 2 -35 27 -83 55
-48 28 -123 77 -167 109 -237 171 -312 214 -433 245 -77 19 -152 23 -209 9z"></path>
    <path d="M4907 3079 c-22 -12 -44 -34 -54 -54 -17 -37 -10 -61 10 -34 35 48
153 67 214 35 90 -46 115 -166 56 -264 -14 -24 -12 -24 15 5 33 34 52 87 52
143 -1 70 -59 155 -123 179 -45 17 -128 12 -170 -10z"></path>
    <path d="M4443 3060 c-72 -29 -44 -153 35 -153 73 0 109 87 57 138 -25 26 -54
30 -92 15z m83 -45 c19 -28 11 -60 -18 -76 -29 -15 -63 -4 -77 27 -27 60 58
105 95 49z"></path>
    <path d="M14 3005 c-19 -15 -19 -15 5 -35 23 -20 34 -20 2153 -18 2285 3 2163
0 2137 50 -9 17 -97 18 -2142 18 -1881 0 -2135 -2 -2153 -15z"></path>
    <path d="M5574 2960 c-91 -14 -195 -74 -207 -120 -3 -11 3 -30 13 -43 17 -20
26 -22 112 -21 81 1 109 7 213 43 142 48 126 52 -43 11 -134 -33 -217 -38
-248 -16 -18 14 -18 15 10 45 47 49 118 74 226 79 52 2 115 -1 140 -7 63 -14
62 -6 -2 12 -71 20 -152 27 -214 17z"></path>
  </g>
</svg>