<?xml version="1.0" encoding="UTF-8" standalone="no" ?>
<!DOCTYPE svg PUBLIC "-//W3C//DTD SVG 1.1//EN" "http://www.w3.org/Graphics/SVG/1.1/DTD/svg11.dtd">
<svg xmlns="http://www.w3.org/2000/svg" xmlns:xlink="http://www.w3.org/1999/xlink" version="1.1" width="1080" height="1080" viewBox="0 0 1080 1080" xml:space="preserve">
<desc>Created with Fabric.js 5.2.4</desc>
<defs>
</defs>
<g transform="matrix(1 0 0 1 540 540)" id="5c7c98c4-4ed3-459c-bf99-f8f13197419f"  >
<rect style="stroke: none; stroke-width: 1; stroke-dasharray: none; stroke-linecap: butt; stroke-dashoffset: 0; stroke-linejoin: miter; stroke-miterlimit: 4; fill: rgb(255,255,255); fill-rule: nonzero; opacity: 1; visibility: hidden;" vector-effect="non-scaling-stroke"  x="-540" y="-540" rx="0" ry="0" width="1080" height="1080" />
</g>
<g transform="matrix(1 0 0 1 540 540)" id="112bc9b2-58f4-4af4-8d01-7c2a26c1888c"  >
</g>
<g transform="matrix(2.41 0 0 2.41 540 540)"  >
<path style="stroke: none; stroke-width: 1; stroke-dasharray: none; stroke-linecap: butt; stroke-dashoffset: 0; stroke-linejoin: miter; stroke-miterlimit: 4; fill: #381e1e; fill-rule: evenodd; opacity: 1;"  transform=" translate(-224, -255.74)" d="M 0 0 L 448 0 L 448 62.804 L 0 62.804 L 0 0 z M 0 229.083 L 448 229.083 L 448 511.471 L 223.954 385.808 L 0 511.471 L 0 229.083 z M 0 114.541 L 448 114.541 L 448 177.345 L 0 177.345 L 0 114.541 z" stroke-linecap="round" />
</g>
</svg>